<svg width="57" height="59" viewBox="0 0 57 59" fill="none" xmlns="http://www.w3.org/2000/svg">
<circle cx="22.2842" cy="22" r="22" fill="#F3F3FF"/>
<g clip-path="url(#clip0)">
<path d="M14.1417 44.1419C14.1342 44.1344 14.1273 44.1275 14.1195 44.1197C13.5103 43.5088 13.5118 42.5194 14.123 41.91C14.7337 41.3015 15.7216 41.3023 16.331 41.9117L16.3515 41.9322C22.871 48.4517 33.5183 48.5059 40.0998 42.0479C42.9062 39.2942 44.6718 35.6296 45.0708 31.7287C45.2432 30.0432 46.6467 28.7722 48.3357 28.772L50.92 28.7767L46.7775 24.6285C46.7773 24.6283 46.7773 24.6283 46.777 24.6281C46.5828 24.4339 46.356 24.4048 46.238 24.405C46.1199 24.4048 45.8927 24.4339 45.6985 24.6285L41.5303 28.8015C42.2331 28.9476 42.765 29.5667 42.7732 30.3142C42.7829 31.1772 42.0909 31.8843 41.2282 31.8938L40.3516 31.9037C40.3458 31.9035 40.3402 31.9035 40.3344 31.9037C39.2727 31.9037 38.3236 31.2693 37.9164 30.2881C37.5088 29.3056 37.7308 28.1841 38.4818 27.4314L43.4875 22.4201C44.2221 21.6847 45.1987 21.2799 46.238 21.2799C47.2764 21.2799 48.2526 21.6843 48.9867 22.4184L48.9887 22.4203L53.9931 27.4317C54.7447 28.1846 54.9666 29.3058 54.5591 30.2885C54.1519 31.2697 53.2027 31.904 52.141 31.904L48.3327 31.897C48.2554 31.897 48.1883 31.9616 48.1797 32.047C47.7062 36.6714 45.6141 41.0156 42.2886 44.2785C34.4883 51.932 21.8684 51.8677 14.1417 44.1419ZM10.385 38.7754C11.4245 38.7756 12.4014 38.3706 13.1359 37.6352L18.1417 32.6238C18.8926 31.8711 19.1147 30.7497 18.707 29.7672C18.3001 28.7858 17.351 28.1518 16.2891 28.1515C16.2835 28.1515 16.2774 28.1515 16.2718 28.1515L15.3953 28.1615C14.5323 28.1707 13.8405 28.8781 13.8502 29.7411C13.8584 30.4886 14.3901 31.1075 15.0934 31.2535L10.9249 35.4267C10.7307 35.6214 10.5037 35.6503 10.3855 35.6503C10.2676 35.6503 10.0406 35.6214 9.84641 35.4272C9.84619 35.427 9.84619 35.427 9.84598 35.4267L5.7032 31.2784L8.28796 31.2831C9.97675 31.2831 11.38 30.0119 11.5527 28.3261C11.9519 24.4255 13.7171 20.7609 16.5234 18.0072C23.1051 11.5494 33.7523 11.6033 40.272 18.123L40.2923 18.1433C40.9017 18.7527 41.8898 18.7538 42.5003 18.1451C43.1116 17.5359 43.1129 16.5467 42.5037 15.9354C42.4962 15.9278 42.4892 15.9209 42.4817 15.9133C34.7553 8.18691 22.1351 8.12325 14.3349 15.7767C11.0091 19.0399 8.91699 23.3836 8.44376 28.0083C8.43513 28.0937 8.36802 28.1582 8.29077 28.1582L4.48225 28.1511C3.42056 28.1511 2.47129 28.7853 2.06431 29.7667C1.65668 30.7492 1.87872 31.8707 2.63033 32.6236L7.63476 37.6349L7.6367 37.6369C8.37082 38.371 9.34685 38.7752 10.385 38.7754Z" fill="#FFC241"/>
</g>
<defs>
<clipPath id="clip0">
<rect width="40" height="40" fill="white" transform="translate(28.2842 1.71582) rotate(45)"/>
</clipPath>
</defs>
</svg>
