<svg width="52" height="47" viewBox="0 0 52 47" fill="none" xmlns="http://www.w3.org/2000/svg">
<circle cx="22.2842" cy="22" r="22" fill="#F3F3FF"/>
<path d="M35.0108 19.5781H31.9088V16.375H33.4713C34.3343 16.375 35.0338 15.6755 35.0338 14.8125C35.0338 13.9495 34.3343 13.25 33.4713 13.25H31.9088V11.6875C31.9088 9.96438 30.5069 8.5625 28.7838 8.5625H25.6588C23.9357 8.5625 22.5338 9.96438 22.5338 11.6875V19.5781H19.588C17.8399 19.5781 16.1721 20.3284 15.0122 21.6363C13.8536 22.9429 13.308 24.6859 13.515 26.4197L15.6611 45.6112C15.7495 46.402 16.4182 47 17.2139 47H37.3849C38.1858 47 38.8571 46.3944 38.9392 45.5976L39.3255 41.8476C39.414 40.9892 38.7898 40.2216 37.9314 40.1332C37.073 40.0445 36.3055 40.6689 36.217 41.5273L35.9751 43.875H18.6114L16.6199 26.0659C16.6194 26.0615 16.6189 26.0571 16.6183 26.0527C16.5145 25.1911 16.7745 24.359 17.3502 23.7097C17.9258 23.0606 18.7206 22.7031 19.588 22.7031H35.0108C35.8783 22.7031 36.673 23.0606 37.2486 23.7097C37.8244 24.359 38.0843 25.1911 37.9811 26.0479L36.9691 34.2302C36.8632 35.0866 37.4716 35.8667 38.328 35.9726C39.1843 36.0784 39.9646 35.4702 40.0705 34.6137L41.0831 26.4266C41.2922 24.6905 40.7469 22.9446 39.5868 21.6364C38.4268 20.3284 36.759 19.5781 35.0108 19.5781ZM25.6588 11.6875H28.7838V19.5781H25.6588V11.6875ZM41.2838 14.8125C41.2838 15.6755 40.5843 16.375 39.7213 16.375C38.8583 16.375 38.1588 15.6755 38.1588 14.8125C38.1588 13.9495 38.8583 13.25 39.7213 13.25C40.5843 13.25 41.2838 13.9495 41.2838 14.8125ZM49.0963 14.8125C49.0963 15.6755 48.3968 16.375 47.5338 16.375C46.6708 16.375 45.9713 15.6755 45.9713 14.8125C45.9713 13.9495 46.6708 13.25 47.5338 13.25C48.3968 13.25 49.0963 13.9495 49.0963 14.8125ZM45.9713 8.5625C45.9713 7.69953 46.6708 7 47.5338 7C48.3968 7 49.0963 7.69953 49.0963 8.5625C49.0963 9.42547 48.3968 10.125 47.5338 10.125C46.6708 10.125 45.9713 9.42547 45.9713 8.5625ZM49.0963 21.0625C49.0963 21.9255 48.3968 22.625 47.5338 22.625C46.6708 22.625 45.9713 21.9255 45.9713 21.0625C45.9713 20.1995 46.6708 19.5 47.5338 19.5C48.3968 19.5 49.0963 20.1995 49.0963 21.0625ZM45.1901 11.6875C45.1901 12.5505 44.4905 13.25 43.6276 13.25C42.7646 13.25 42.0651 12.5505 42.0651 11.6875C42.0651 10.8245 42.7646 10.125 43.6276 10.125C44.4905 10.125 45.1901 10.8245 45.1901 11.6875ZM45.1901 17.9375C45.1901 18.8005 44.4905 19.5 43.6276 19.5C42.7646 19.5 42.0651 18.8005 42.0651 17.9375C42.0651 17.0745 42.7646 16.375 43.6276 16.375C44.4905 16.375 45.1901 17.0745 45.1901 17.9375ZM25.6588 37.7031V34.9688H22.9244C22.0615 34.9688 21.3619 34.2692 21.3619 33.4062C21.3619 32.5433 22.0615 31.8438 22.9244 31.8438H25.6588V29.1094C25.6588 28.2464 26.3583 27.5469 27.2213 27.5469C28.0843 27.5469 28.7838 28.2464 28.7838 29.1094V31.8438H31.5182C32.3812 31.8438 33.0807 32.5433 33.0807 33.4062C33.0807 34.2692 32.3812 34.9688 31.5182 34.9688H28.7838V37.7031C28.7838 38.5661 28.0843 39.2656 27.2213 39.2656C26.3583 39.2656 25.6588 38.5661 25.6588 37.7031Z" fill="#FFC241"/>
</svg>
