<svg width="52" height="50" viewBox="0 0 52 50" fill="none" xmlns="http://www.w3.org/2000/svg">
<circle cx="22.2842" cy="22" r="22" fill="#F3F3FF"/>
<g clip-path="url(#clip0)">
<path d="M37.6916 35.4341C36.7084 33.3041 34.7259 31.8198 32.4561 31.4346V11.1719C32.4561 10.5247 31.9314 10 31.2842 10C30.637 10 30.1123 10.5247 30.1123 11.1719V31.4345C27.843 31.8195 25.8602 33.3038 24.8768 35.4341C22.6683 40.2184 18.9233 48.3334 18.9233 48.3334C18.7558 48.6963 18.7848 49.1194 19.0002 49.456C19.2156 49.7927 19.5877 49.9963 19.9873 49.9963H22.8291C24.3896 49.9963 25.8372 49.375 26.891 48.3059C28.7192 50.1605 30.954 49.9963 31.2959 49.9963C31.6263 49.9963 33.8528 50.157 35.6775 48.3059C36.7313 49.375 38.1789 49.9963 39.7394 49.9963H42.5811C42.9807 49.9963 43.3528 49.7927 43.5682 49.456C43.7836 49.1194 43.8126 48.6963 43.6452 48.3334C43.6452 48.3334 39.9002 40.2184 37.6916 35.4341ZM27.0048 36.4164C27.7648 34.7698 29.4189 33.7007 31.2304 33.6796C31.2484 33.6804 31.266 33.6823 31.2842 33.6823C31.3025 33.6823 31.3203 33.6805 31.3384 33.6796C33.149 33.7004 34.8034 34.7695 35.5637 36.4164C35.7386 36.7953 35.9235 37.1959 36.1151 37.6109H26.4534C26.6449 37.1959 26.8298 36.7952 27.0048 36.4164ZM39.7393 47.6525C38.4551 47.6525 37.3002 46.9388 36.7255 45.7897C36.527 45.3927 36.1213 45.142 35.6774 45.142C35.2337 45.142 34.8279 45.3927 34.6294 45.7897C33.6517 47.7442 31.7319 47.6525 31.274 47.6525C30.7245 47.6525 28.8835 47.6779 27.939 45.7897C27.7405 45.3927 27.3348 45.142 26.8909 45.142C26.4471 45.142 26.0414 45.3927 25.8428 45.7897C25.2681 46.9388 24.1133 47.6525 22.8291 47.6525H21.8188C22.6588 45.8323 24.0609 42.7941 25.3715 39.9546H37.1968C38.5074 42.7942 39.9096 45.8323 40.7495 47.6525H39.7393Z" fill="#FFC241"/>
<path d="M50.4591 14.4454C48.7652 13.8722 47.4159 12.524 46.8409 10.8309C46.6949 10.35 46.248 10.0002 45.7194 10.0002C45.1931 10.0002 44.7477 10.3475 44.5998 10.8254C44.0266 12.5193 42.6784 13.8687 40.9852 14.4436C40.5044 14.5896 40.1545 15.0365 40.1545 15.5651C40.1545 16.0914 40.5018 16.5368 40.9797 16.6847C42.6736 17.2579 44.023 18.606 44.5979 20.2992C44.7439 20.7801 45.1908 21.1299 45.7194 21.1299C46.2457 21.1299 46.691 20.7827 46.839 20.3049C47.4122 18.6109 48.7604 17.2615 50.4535 16.6866C50.9344 16.5406 51.2842 16.0937 51.2842 15.565C51.2842 15.0387 50.937 14.5934 50.4591 14.4454ZM45.7195 17.4195C45.2052 16.7063 44.5782 16.0793 43.865 15.5651C44.5781 15.0509 45.2052 14.4238 45.7195 13.7106C46.2337 14.4238 46.8607 15.0509 47.5739 15.5651C46.8607 16.0792 46.2337 16.7063 45.7195 17.4195Z" fill="#FFC241"/>
<path d="M17.4768 14.2266H18.1877V14.9375C18.1877 15.5847 18.7124 16.1094 19.3596 16.1094C20.0068 16.1094 20.5315 15.5847 20.5315 14.9375V14.2266H21.2424C21.8896 14.2266 22.4143 13.7019 22.4143 13.0547C22.4143 12.4075 21.8896 11.8828 21.2424 11.8828H20.5315V11.1719C20.5315 10.5247 20.0068 10 19.3596 10C18.7124 10 18.1877 10.5247 18.1877 11.1719V11.8828H17.4768C16.8296 11.8828 16.3049 12.4075 16.3049 13.0547C16.3049 13.7019 16.8295 14.2266 17.4768 14.2266Z" fill="#FFC241"/>
<path d="M45.0913 30.7109H44.3804V30C44.3804 29.3528 43.8557 28.8281 43.2085 28.8281C42.5613 28.8281 42.0366 29.3528 42.0366 30V30.7109H41.3257C40.6785 30.7109 40.1538 31.2356 40.1538 31.8828C40.1538 32.53 40.6785 33.0547 41.3257 33.0547H42.0366V33.7656C42.0366 34.4128 42.5613 34.9375 43.2085 34.9375C43.8557 34.9375 44.3804 34.4128 44.3804 33.7656V33.0547H45.0913C45.7385 33.0547 46.2632 32.53 46.2632 31.8828C46.2632 31.2356 45.7386 30.7109 45.0913 30.7109Z" fill="#FFC241"/>
<path d="M21.5831 30.4939C22.0639 30.3479 22.4138 29.9011 22.4138 29.3725C22.4138 28.8461 22.0665 28.4007 21.5886 28.2529C19.8946 27.6796 18.5452 26.3314 17.9704 24.638C17.8243 24.1573 17.3775 23.8076 16.8489 23.8076C16.3226 23.8076 15.8773 24.1548 15.7293 24.6326C15.1561 26.3266 13.8079 27.6761 12.1148 28.2509C11.634 28.3969 11.2842 28.8439 11.2842 29.3725C11.2842 29.8988 11.6314 30.3442 12.1093 30.4921C13.8032 31.0653 15.1525 32.4135 15.7275 34.1066C15.8736 34.5875 16.3204 34.9372 16.849 34.9372C17.3754 34.9372 17.8207 34.59 17.9686 34.1121C18.5418 32.4182 19.89 31.0689 21.5831 30.4939ZM16.8489 31.2269C16.3347 30.5137 15.7077 29.8867 14.9945 29.3725C15.7077 28.8582 16.3347 28.2312 16.8489 27.518C17.3632 28.2312 17.9902 28.8582 18.7034 29.3725C17.9903 29.8867 17.3632 30.5137 16.8489 31.2269Z" fill="#FFC241"/>
</g>
<defs>
<clipPath id="clip0">
<rect width="40" height="40" fill="white" transform="translate(11.2842 10)"/>
</clipPath>
</defs>
</svg>
