<svg width="49" height="48" viewBox="0 0 49 48" fill="none" xmlns="http://www.w3.org/2000/svg">
<circle cx="22.2842" cy="22" r="22" fill="#F3F3FF"/>
<path d="M20.9466 39.2406C20.9334 39.2547 20.9203 39.2687 20.9074 39.2826C20.117 40.133 20.7229 41.5157 21.8843 41.5157H34.684C35.8454 41.5157 36.4513 40.133 35.661 39.2826C35.6481 39.2687 35.635 39.2547 35.6219 39.2406C34.4335 37.9701 29.9602 34.1955 29.9026 34.146C28.9712 33.3472 27.5972 33.3472 26.6659 34.146C26.6083 34.1954 22.135 37.9701 20.9466 39.2406Z" fill="#FFC241"/>
<path d="M34.3879 26.8205C34.7603 26.4966 35.1861 26.1386 35.6371 25.7595C38.9632 22.9635 43.5186 19.1343 43.5186 15.1094V12.6875C43.5186 10.1028 41.4157 8 38.8311 8H17.7373C15.1526 8 13.0498 10.1028 13.0498 12.6875V15.1094C13.0498 19.1343 17.6051 22.9635 20.9313 25.7596C21.3822 26.1387 21.8081 26.4966 22.1805 26.8206C22.5343 27.1285 22.7373 27.5584 22.7373 28.0001C22.7373 28.4417 22.5344 28.8716 22.1805 29.1795C21.8081 29.5034 21.3822 29.8614 20.9313 30.2405C17.6051 33.0365 13.0498 36.8657 13.0498 40.8906V43.3125C13.0498 45.8972 15.1526 48 17.7373 48H38.8311C41.4157 48 43.5186 45.8972 43.5186 43.3125C43.5186 42.4495 42.819 41.75 41.9561 41.75C41.0931 41.75 40.3936 42.4495 40.3936 43.3125C40.3936 44.1741 39.6926 44.875 38.8311 44.875H17.7373C16.8757 44.875 16.1748 44.1741 16.1748 43.3125V40.8906C16.1748 38.3213 20.4111 34.7602 22.9421 32.6325C23.4034 32.2448 23.8392 31.8784 24.2316 31.537C25.2679 30.6354 25.8623 29.3462 25.8623 28C25.8623 26.6537 25.2679 25.3645 24.2317 24.4629C23.8393 24.1216 23.4035 23.7552 22.9421 23.3674C20.4111 21.2398 16.1748 17.6788 16.1748 15.1094V12.6875C16.1748 11.8259 16.8757 11.125 17.7373 11.125H38.8311C39.6926 11.125 40.3936 11.8259 40.3936 12.6875V15.1094C40.3936 17.6788 36.1573 21.2398 33.6263 23.3674C33.165 23.7552 32.7292 24.1215 32.3368 24.4629C31.3004 25.3645 30.7061 26.6537 30.7061 28C30.7061 29.3463 31.3004 30.6355 32.3367 31.537C32.7457 31.8927 33.2013 32.2741 33.6837 32.678C35.2039 33.9504 36.9268 35.3926 38.2867 36.927C38.859 37.5727 39.8465 37.6323 40.4924 37.0599C41.1382 36.4876 41.1977 35.5001 40.6254 34.8542C39.1111 33.1456 37.2139 31.5577 35.6895 30.2816C35.2189 29.8877 34.7743 29.5155 34.3879 29.1794C34.034 28.8715 33.8311 28.4416 33.8311 28C33.8311 27.5584 34.034 27.1284 34.3879 26.8205Z" fill="#FFC241"/>
<path d="M29.9725 22.4715C30.0007 22.4469 31.0914 21.51 32.3333 20.4112C33.3067 19.55 32.7075 17.9219 31.4171 17.9219H25.3075C24.0172 17.9219 23.4179 19.55 24.3913 20.4112C25.6333 21.5101 26.724 22.4469 26.7522 22.4715C27.6788 23.2803 29.0458 23.2803 29.9725 22.4715Z" fill="#FFC241"/>
</svg>
