<svg width="293" height="210" viewBox="0 0 293 210" fill="none" xmlns="http://www.w3.org/2000/svg">
<path d="M188.922 69.9328C191.333 72.3437 191.333 76.2517 188.922 78.6614L147.517 120.067C145.106 122.477 141.199 122.477 138.788 120.067L119.078 100.356C116.667 97.9461 116.667 94.0381 119.078 91.6284C121.488 89.2175 125.396 89.2175 127.806 91.6284L143.152 106.975L180.193 69.9328C182.604 67.5231 186.512 67.5231 188.922 69.9328ZM233 95C233 138.667 197.661 174 154 174C110.333 174 75 138.661 75 95C75 51.3328 110.339 16 154 16C197.667 16 233 51.3388 233 95ZM220.656 95C220.656 58.1556 190.84 28.3438 154 28.3438C117.156 28.3438 87.3438 58.1604 87.3438 95C87.3438 131.844 117.16 161.656 154 161.656C190.844 161.656 220.656 131.84 220.656 95Z" fill="white"/>
<g clip-path="url(#clip0)">
<path d="M48.5354 15.4618C45.5629 15.4618 42.7713 16.6085 40.674 18.6909C38.5775 20.7722 37.4231 23.5444 37.4231 26.4966C37.4231 27.3056 36.767 27.9614 35.9583 27.9614C35.1492 27.9614 34.4935 27.3056 34.4935 26.4966C34.4935 23.5444 33.3387 20.7722 31.2422 18.6909C29.1449 16.6085 26.3533 15.4618 23.3809 15.4618C22.5718 15.4618 21.916 14.806 21.916 13.9969C21.916 13.1878 22.5718 12.5321 23.3809 12.5321C29.508 12.5321 34.4935 7.56726 34.4935 1.46489C34.4935 0.655796 35.1492 4.95911e-05 35.9583 4.95911e-05C36.767 4.95911e-05 37.4231 0.655796 37.4231 1.46489C37.4231 7.56726 42.4082 12.5321 48.5354 12.5321C49.3445 12.5321 50.0002 13.1878 50.0002 13.9969C50.0002 14.806 49.3445 15.4618 48.5354 15.4618ZM35.9583 7.68628C34.598 10.4073 32.3744 12.6278 29.6476 13.9889C30.9847 14.6519 32.2191 15.5324 33.3063 16.6119C34.3985 17.696 35.2884 18.9282 35.9579 20.2633C36.6278 18.9282 37.5177 17.696 38.6095 16.6119C39.6967 15.5324 40.9315 14.6519 42.2682 13.9889C39.5418 12.6278 37.3182 10.4073 35.9583 7.68628Z" fill="white"/>
<path d="M20.0424 26.9154C15.7284 26.9154 12.2185 30.3993 12.2185 34.6821C12.2185 35.4908 11.5627 36.1469 10.7536 36.1469C9.94453 36.1469 9.28879 35.4908 9.28879 34.6821C9.28879 30.3993 5.77888 26.9154 1.46484 26.9154C0.655746 26.9154 0 26.2592 0 25.4505C0 24.6414 0.655746 23.9857 1.46484 23.9857C5.77888 23.9857 9.28879 20.4907 9.28879 16.1949C9.28879 15.3862 9.94453 14.7301 10.7536 14.7301C11.5627 14.7301 12.2185 15.3862 12.2185 16.1949C12.2185 20.4907 15.7284 23.9857 20.0424 23.9857C20.8515 23.9857 21.5073 24.6414 21.5073 25.4505C21.5073 26.2592 20.8515 26.9154 20.0424 26.9154ZM10.7536 21.592C9.81941 23.1838 8.48503 24.5155 6.88934 25.4486C8.48503 26.3798 9.81941 27.7085 10.7536 29.2969C11.6879 27.7085 13.0222 26.3798 14.6179 25.4486C13.0222 24.5155 11.6879 23.1842 10.7536 21.592Z" fill="white"/>
<path d="M22.4258 39.8773C25.5985 39.8773 28.1799 37.3158 28.1799 34.1675C28.1799 33.3588 28.8356 32.7026 29.6447 32.7026C30.4538 32.7026 31.1096 33.3588 31.1096 34.1675C31.1096 37.326 33.691 39.8956 36.8637 39.8956C37.6728 39.8956 38.3285 40.5518 38.3285 41.3605C38.3285 42.1696 37.6728 42.8253 36.8637 42.8253C33.691 42.8253 31.1096 45.3869 31.1096 48.5352C31.1096 49.3443 30.4538 50 29.6447 50C28.8356 50 28.1799 49.3443 28.1799 48.5352C28.1799 45.3766 25.5985 42.807 22.4258 42.807C21.6167 42.807 20.9609 42.1513 20.9609 41.3422C20.9609 40.5331 21.6167 39.8773 22.4258 39.8773ZM29.6482 43.7328C30.2802 42.7959 31.0916 41.9884 32.0331 41.3589C31.0882 40.7261 30.2745 39.9132 29.6413 38.9698C29.0092 39.9067 28.1978 40.7143 27.2563 41.3437C28.2012 41.9765 29.0153 42.7895 29.6482 43.7328Z" fill="white"/>
</g>
<g clip-path="url(#clip1)">
<path d="M291.535 175.462C288.563 175.462 285.771 176.608 283.674 178.691C281.577 180.772 280.423 183.544 280.423 186.497C280.423 187.306 279.767 187.961 278.958 187.961C278.149 187.961 277.493 187.306 277.493 186.497C277.493 183.544 276.339 180.772 274.242 178.691C272.145 176.608 269.353 175.462 266.381 175.462C265.572 175.462 264.916 174.806 264.916 173.997C264.916 173.188 265.572 172.532 266.381 172.532C272.508 172.532 277.493 167.567 277.493 161.465C277.493 160.656 278.149 160 278.958 160C279.767 160 280.423 160.656 280.423 161.465C280.423 167.567 285.408 172.532 291.535 172.532C292.344 172.532 293 173.188 293 173.997C293 174.806 292.344 175.462 291.535 175.462ZM278.958 167.686C277.598 170.407 275.374 172.628 272.648 173.989C273.985 174.652 275.219 175.532 276.306 176.612C277.398 177.696 278.288 178.928 278.958 180.263C279.628 178.928 280.518 177.696 281.61 176.612C282.697 175.532 283.932 174.652 285.268 173.989C282.542 172.628 280.318 170.407 278.958 167.686Z" fill="white"/>
<path d="M263.042 186.915C258.728 186.915 255.218 190.399 255.218 194.682C255.218 195.491 254.563 196.147 253.754 196.147C252.945 196.147 252.289 195.491 252.289 194.682C252.289 190.399 248.779 186.915 244.465 186.915C243.656 186.915 243 186.259 243 185.451C243 184.641 243.656 183.986 244.465 183.986C248.779 183.986 252.289 180.491 252.289 176.195C252.289 175.386 252.945 174.73 253.754 174.73C254.563 174.73 255.218 175.386 255.218 176.195C255.218 180.491 258.728 183.986 263.042 183.986C263.852 183.986 264.507 184.641 264.507 185.451C264.507 186.259 263.852 186.915 263.042 186.915ZM253.754 181.592C252.819 183.184 251.485 184.516 249.889 185.449C251.485 186.38 252.819 187.708 253.754 189.297C254.688 187.708 256.022 186.38 257.618 185.449C256.022 184.516 254.688 183.184 253.754 181.592Z" fill="white"/>
<path d="M265.426 199.877C268.598 199.877 271.18 197.316 271.18 194.167C271.18 193.359 271.836 192.703 272.645 192.703C273.454 192.703 274.11 193.359 274.11 194.167C274.11 197.326 276.691 199.896 279.864 199.896C280.673 199.896 281.328 200.552 281.328 201.36C281.328 202.17 280.673 202.825 279.864 202.825C276.691 202.825 274.11 205.387 274.11 208.535C274.11 209.344 273.454 210 272.645 210C271.836 210 271.18 209.344 271.18 208.535C271.18 205.377 268.598 202.807 265.426 202.807C264.617 202.807 263.961 202.151 263.961 201.342C263.961 200.533 264.617 199.877 265.426 199.877ZM272.648 203.733C273.28 202.796 274.092 201.988 275.033 201.359C274.088 200.726 273.275 199.913 272.641 198.97C272.009 199.907 271.198 200.714 270.256 201.344C271.201 201.977 272.015 202.789 272.648 203.733Z" fill="white"/>
</g>
<defs>
<clipPath id="clip0">
<rect width="50" height="50" fill="white" transform="matrix(1 0 0 -1 0 50)"/>
</clipPath>
<clipPath id="clip1">
<rect width="50" height="50" fill="white" transform="matrix(1 0 0 -1 243 210)"/>
</clipPath>
</defs>
</svg>
