<svg width="51" height="50" viewBox="0 0 51 50" fill="none" xmlns="http://www.w3.org/2000/svg">
<circle cx="22.2842" cy="22" r="22" fill="#F3F3FF"/>
<g clip-path="url(#clip0)">
<path d="M49.8252 47.3312L12.9514 10.4578C12.3411 9.84741 11.352 9.84741 10.7419 10.4578C10.1316 11.0678 10.1316 12.0572 10.7419 12.6672L20.062 21.9873C16.533 27.2055 14.8139 31.1633 14.8139 34.0677V34.4946C14.8139 43.0444 21.753 50 30.282 50C32.9532 50 35.5872 49.306 37.8986 47.9929C39.5908 47.0316 41.0917 45.7516 42.3133 44.2389L47.6154 49.541C47.9206 49.8462 48.3204 49.9988 48.7205 49.9988C49.1202 49.9988 49.52 49.8462 49.8252 49.541C50.4352 48.931 50.4352 47.9416 49.8252 47.3312ZM30.282 46.875C23.476 46.875 17.9389 41.3214 17.9389 34.4946V34.0677C17.9389 32.5604 18.7241 29.6518 22.3142 24.2395L40.0895 42.0148C37.7598 45.0781 34.173 46.875 30.282 46.875ZM24.6918 15.7437C27.1268 12.7014 29.0488 10.5972 29.1294 10.509C29.4254 10.1855 29.8438 10.0015 30.282 10.0015C30.7203 10.0015 31.1387 10.1855 31.4347 10.509C31.5787 10.6665 35.0068 14.4226 38.4922 19.1467C43.3082 25.6747 45.7502 30.6949 45.7502 34.0677V34.4949C45.7502 34.8254 45.7395 35.1602 45.7188 35.4898C45.6666 36.3174 44.9787 36.9537 44.1611 36.9537C44.1279 36.9537 44.0946 36.9525 44.061 36.9504C43.1998 36.8961 42.5458 36.1539 42.6002 35.2927C42.6169 35.0284 42.6252 34.7601 42.6252 34.4949V34.0677C42.6252 31.4526 40.2643 26.8124 35.9775 21.0019C33.7849 18.0298 31.5766 15.4095 30.282 13.92C29.4965 14.8233 28.3759 16.1417 27.1311 17.6962C26.5919 18.3701 25.6086 18.479 24.9351 17.9398C24.2615 17.4005 24.1526 16.4172 24.6918 15.7437Z" fill="#FFC241"/>
</g>
<defs>
<clipPath id="clip0">
<rect width="40" height="40" fill="white" transform="translate(10.2842 10)"/>
</clipPath>
</defs>
</svg>
