<svg width="80" height="80" viewBox="0 0 80 80" fill="none" xmlns="http://www.w3.org/2000/svg">
<g clip-path="url(#clip0)">
<path d="M62.5833 42.8841C62.7401 42.6655 62.8983 42.4411 63.0571 42.2142C61.4805 41.685 59.5752 41.4091 57.4227 41.4091C53.5824 41.4091 50.1845 43.027 46.729 46.5008C38.7348 54.5378 37.1515 67.6592 36.8556 73.5878C42.7642 73.2784 55.8041 71.6676 63.7544 63.6748C66.785 60.6279 68.5308 57.5264 68.9429 54.4562C69.173 52.7425 70.7478 51.5395 72.4627 51.7695C74.1764 51.9997 75.3794 53.5755 75.1494 55.2894C74.5514 59.7454 72.2111 64.0525 68.1943 68.0911C57.1421 79.2024 39.0567 79.924 34.5534 79.924C33.9928 79.924 33.6432 79.9129 33.5432 79.9092C31.8198 79.8451 30.4728 78.3995 30.53 76.6762C30.5307 76.6537 30.5318 76.6314 30.5331 76.609C30.4764 73.8682 30.4901 53.9469 42.2893 42.0847C46.9327 37.4164 51.8829 35.1471 57.4227 35.1471C60.9015 35.1471 63.9272 35.7093 66.4566 36.8166C69.321 31.7336 71.9666 25.4179 73.1361 18.1841C69.6944 19.8288 64.758 21.438 58.3576 21.681C56.6313 21.7501 55.1754 20.399 55.1099 18.6708C55.0443 16.9427 56.3918 15.4888 58.1201 15.4232C68.8991 15.0138 74.3805 10.1657 74.7189 9.85664C75.6338 8.96774 76.9814 8.73805 78.1488 9.25321C79.3196 9.76961 80.0421 10.9618 79.9982 12.2405C79.7714 18.8533 78.3533 25.4596 75.7833 31.8761C73.7405 36.9758 70.9702 41.965 67.5485 46.7053C61.7265 54.7712 56.0416 59.3264 55.8026 59.5164C55.2268 59.9737 54.5394 60.1958 53.8571 60.1958C52.9349 60.1958 52.0215 59.7903 51.4032 59.0119C50.3285 57.6586 50.553 55.6906 51.9051 54.6145C51.9923 54.5448 57.2777 50.2772 62.5833 42.8841ZM24.8901 61.4858C24.9558 63.2139 23.6083 64.6678 21.88 64.7334C11.1011 65.1428 5.61954 69.9909 5.2811 70.3C4.68923 70.875 3.91611 71.1743 3.12783 71.1743C2.69783 71.1743 2.2633 71.0853 1.85127 70.9035C0.680486 70.387 -0.0420121 69.195 0.00189403 67.9162C0.228612 61.305 1.63783 54.7081 4.19064 48.3092C5.39735 45.2839 6.86172 42.3003 8.56391 39.386C8.4536 39.0835 8.38828 38.7682 8.37438 38.4503C8.27188 38.2513 8.1425 38.0102 8.02875 37.7982C6.92969 35.7502 4.88423 31.9385 4.85376 27.1199C4.82017 21.803 7.21172 16.6854 11.9623 11.9093C24.3903 -0.58537 45.7121 0.0580663 46.6132 0.0910349C48.3366 0.155097 49.6837 1.60056 49.6265 3.324C49.6257 3.34634 49.6246 3.36884 49.6234 3.39118C49.6801 6.1318 49.6663 26.0533 37.8671 37.9153C33.2237 42.5836 28.2736 44.8531 22.7337 44.8531C18.5459 44.8531 15.605 44.0308 13.6262 43.1569C10.7323 48.2583 8.04172 54.6364 6.86126 61.9739C10.3031 60.3287 15.2403 58.7187 21.6426 58.4756C23.3728 58.4111 24.8245 59.7578 24.8901 61.4858ZM11.1158 27.0802C11.1305 29.4319 11.887 31.4893 12.6677 33.126C18.3473 25.3516 23.8093 20.9804 24.0429 20.7952C25.3978 19.721 27.3673 19.948 28.4418 21.3035C29.5153 22.6576 29.289 24.6249 27.9367 25.6999C27.8734 25.7505 22.6169 29.9808 17.3392 37.3503C17.2411 37.4875 17.1422 37.6277 17.043 37.7682C18.3581 38.2192 20.1983 38.591 22.7339 38.591C26.5742 38.591 29.9721 36.9732 33.4276 33.4993C41.3929 25.4913 42.9907 12.3501 43.2957 6.41274C37.3851 6.72259 24.3506 8.33446 16.4022 16.3254C12.8716 19.8747 11.0931 23.4932 11.1158 27.0802Z" fill="#FFC241"/>
</g>
<defs>
<clipPath id="clip0">
<rect width="80" height="80" fill="white"/>
</clipPath>
</defs>
</svg>
