<svg width="98" height="88" viewBox="0 0 98 88" fill="none" xmlns="http://www.w3.org/2000/svg">
<path d="M31.5746 58.3562H31.579L31.5903 58.3555H83.6445C84.9261 58.3555 86.0528 57.5054 86.405 56.2732L97.8894 16.0779C98.1368 15.2113 97.9634 14.2797 97.4213 13.5604C96.8785 12.8412 96.0299 12.418 95.1289 12.418H24.9531L22.9007 3.18187C22.6084 1.86819 21.4435 0.933594 20.0977 0.933594H2.87109C1.28526 0.933594 0 2.21886 0 3.80469C0 5.39052 1.28526 6.67578 2.87109 6.67578H17.7948C18.1582 8.31245 27.6163 50.8749 28.1606 53.3236C25.1094 54.65 22.9688 57.6923 22.9688 61.2266C22.9688 65.9758 26.8328 69.8398 31.582 69.8398H83.6445C85.2304 69.8398 86.5156 68.5546 86.5156 66.9688C86.5156 65.3829 85.2304 64.0977 83.6445 64.0977H31.582C29.9992 64.0977 28.7109 62.8094 28.7109 61.2266C28.7109 59.646 29.9947 58.36 31.5746 58.3562ZM91.3225 18.1602L81.4785 52.6133H33.8849L26.2286 18.1602H91.3225Z" fill="#F3F3FF"/>
<path d="M28.7108 78.4531C28.7108 83.2024 32.5749 87.0664 37.3241 87.0664C42.0734 87.0664 45.9374 83.2024 45.9374 78.4531C45.9374 73.7038 42.0734 69.8398 37.3241 69.8398C32.5749 69.8398 28.7108 73.7038 28.7108 78.4531ZM37.3241 75.582C38.907 75.582 40.1952 76.8702 40.1952 78.4531C40.1952 80.0359 38.907 81.3242 37.3241 81.3242C35.7413 81.3242 34.453 80.0359 34.453 78.4531C34.453 76.8702 35.7413 75.582 37.3241 75.582Z" fill="#F3F3FF"/>
<path d="M69.289 78.4531C69.289 83.2024 73.153 87.0664 77.9023 87.0664C82.6515 87.0664 86.5155 83.2024 86.5155 78.4531C86.5155 73.7038 82.6515 69.8398 77.9023 69.8398C73.153 69.8398 69.289 73.7038 69.289 78.4531ZM77.9023 75.582C79.4851 75.582 80.7734 76.8702 80.7734 78.4531C80.7734 80.0359 79.4851 81.3242 77.9023 81.3242C76.3194 81.3242 75.0312 80.0359 75.0312 78.4531C75.0312 76.8702 76.3194 75.582 77.9023 75.582Z" fill="#F3F3FF"/>
</svg>
