<svg width="80" height="80" viewBox="0 0 80 80" fill="none" xmlns="http://www.w3.org/2000/svg">
<g clip-path="url(#clip0)">
<path d="M73.7502 61.25V57.9872C73.7502 54.0138 70.5171 50.7813 66.5432 50.7813H36.5628C34.8397 50.7813 33.4378 52.1832 33.4378 53.9063C33.4378 54.6469 33.6979 55.3274 34.1301 55.8635L34.7645 56.443C34.7839 56.4607 34.8004 56.4802 34.8192 56.4983C35.3176 56.8347 35.9176 57.0313 36.5628 57.0313H52.1877C53.9137 57.0313 55.3127 58.4304 55.3127 60.1563C55.3127 61.8822 53.9137 63.2813 52.1877 63.2813H36.5628C33.8461 63.2813 31.3965 62.1186 29.6828 60.266L11.645 43.7838C11.6177 43.7588 11.5906 43.7332 11.5641 43.7073C10.9755 43.1294 10.1996 42.8124 9.37612 42.8124C9.36612 42.8124 9.35596 42.8126 9.34596 42.8126C8.51143 42.8205 7.72971 43.1529 7.14518 43.7487C6.56034 44.3444 6.24268 45.1323 6.2505 45.9668C6.25815 46.789 6.58081 47.5594 7.15971 48.1412L23.0609 62.8636C23.078 62.8796 23.0948 62.8953 23.1116 62.9116C30.3303 69.9008 39.8395 73.75 49.8874 73.75H76.8752C78.6011 73.75 80.0002 75.1491 80.0002 76.875C80.0002 78.6009 78.6011 80 76.8752 80H49.8873C44.1062 80 38.4579 78.9002 33.099 76.7311C27.7514 74.5664 22.937 71.4358 18.7895 67.4266L2.87457 52.6915C2.85238 52.6708 2.8305 52.6499 2.80879 52.6288C1.02145 50.8747 0.0242601 48.5297 0.000666386 46.0257C-0.0227711 43.5216 0.930196 41.1584 2.6841 39.371C4.438 37.5838 6.78284 36.5863 9.28705 36.5627C11.7653 36.5393 14.116 37.4766 15.898 39.2037L27.9469 50.2133C29.0414 47.6693 31.2309 45.7049 33.9184 44.9132C30.2344 41.2994 27.9451 36.2723 27.9451 30.7204V30.2065C27.9451 25.8123 30.8951 19.6954 36.9637 11.5059C41.2154 5.76827 45.4021 1.2014 45.5782 1.00969C46.1701 0.366405 47.0046 0 47.879 0C48.7534 0 49.5879 0.366406 50.1796 1.01015C50.3078 1.14953 53.3587 4.47609 56.8993 9.01561C57.9607 10.3764 57.7179 12.3401 56.3571 13.4015C54.9962 14.4631 53.0324 14.2201 51.971 12.8592C50.4471 10.9053 49.0062 9.17358 47.8795 7.85655C46.3059 9.69592 44.1201 12.3434 41.9545 15.2689C34.9515 24.7285 34.1954 28.8664 34.1954 30.2065V30.7204C34.1954 38.2495 40.3339 44.3748 47.8792 44.3748C54.1567 44.3748 59.6126 40.1401 61.1471 34.0768C61.5705 32.4037 63.2696 31.3902 64.9432 31.8142C66.6163 32.2376 67.6294 33.9373 67.206 35.6104C66.3332 39.0593 64.5912 42.1023 62.2482 44.5313H66.5432C73.9635 44.5313 80.0002 50.5677 80.0002 57.9872V61.25C80.0002 62.976 78.6011 64.375 76.8752 64.375C75.1493 64.375 73.7502 62.976 73.7502 61.25ZM45.1515 25.141C43.9164 23.9354 41.9378 23.9596 40.7325 25.195C39.5271 26.4301 39.5512 28.4087 40.7865 29.614L46.2379 34.9338C46.2471 34.9429 46.2565 34.9518 46.2659 34.9609C47.3468 35.9899 48.7896 36.5623 50.274 36.5623C50.4015 36.5623 50.5296 36.5581 50.6574 36.5495C52.2745 36.4418 53.784 35.6552 54.7991 34.392C54.8354 34.3468 54.8704 34.3007 54.904 34.2537L63.3587 22.444C64.3633 21.0407 64.0401 19.0886 62.6368 18.084C61.2335 17.0792 59.2813 17.4025 58.2768 18.8057L50.2084 30.0759L45.1515 25.141Z" fill="#FFC241"/>
</g>
<defs>
<clipPath id="clip0">
<rect width="80" height="80" fill="white"/>
</clipPath>
</defs>
</svg>
