<svg width="22" height="22" viewBox="0 0 22 22" fill="none" xmlns="http://www.w3.org/2000/svg">
<rect x="0.114258" width="21" height="22" rx="6" fill="#FFC241"/>
<path d="M7.41735 16V14.7628L10.6997 11.5451C11.0136 11.2281 11.2752 10.9465 11.4845 10.7003C11.6937 10.4541 11.8507 10.2156 11.9553 9.98473C12.06 9.75391 12.1123 9.50769 12.1123 9.24609C12.1123 8.94756 12.0446 8.69212 11.9092 8.47976C11.7738 8.26432 11.5876 8.09813 11.3506 7.98118C11.1136 7.86423 10.8443 7.80575 10.5427 7.80575C10.2319 7.80575 9.95949 7.87038 9.72559 7.99964C9.49168 8.12583 9.3101 8.30587 9.18084 8.53977C9.05466 8.77367 8.99157 9.0522 8.99157 9.37536H7.36195C7.36195 8.77521 7.49891 8.25355 7.77282 7.81037C8.04673 7.36719 8.42374 7.02403 8.90385 6.78089C9.38704 6.53776 9.94102 6.41619 10.5658 6.41619C11.1998 6.41619 11.7568 6.53468 12.2369 6.77166C12.7171 7.00864 13.0895 7.33333 13.3541 7.74574C13.6219 8.15814 13.7558 8.62902 13.7558 9.15838C13.7558 9.51231 13.6881 9.86009 13.5526 10.2017C13.4172 10.5433 13.1787 10.9219 12.8371 11.3374C12.4985 11.7528 12.0231 12.256 11.4106 12.8469L9.78098 14.5043V14.5689H13.8989V16H7.41735Z" fill="white"/>
</svg>
