<svg width="22" height="22" viewBox="0 0 22 22" fill="none" xmlns="http://www.w3.org/2000/svg">
<rect x="0.114258" width="21" height="22" rx="6" fill="#FFC241"/>
<path d="M10.6137 16.1293C12.6357 16.1293 14.1084 14.9705 14.1037 13.3732C14.1084 12.1914 13.3697 11.342 12.0448 11.1527V11.0788C13.0696 10.8572 13.7575 10.0955 13.7529 9.03374C13.7575 7.59339 12.5295 6.41619 10.6414 6.41619C8.80402 6.41619 7.38215 7.5103 7.34521 9.09375H8.9933C9.021 8.29972 9.75963 7.80575 10.6321 7.80575C11.5139 7.80575 12.1002 8.34126 12.0956 9.1353C12.1002 9.96165 11.4169 10.511 10.4383 10.511H9.60267V11.8313H10.4383C11.6339 11.8313 12.3449 12.4315 12.3402 13.2855C12.3449 14.1211 11.6201 14.6935 10.6091 14.6935C9.65807 14.6935 8.92405 14.1996 8.8825 13.4286H7.14671C7.19287 15.0259 8.61936 16.1293 10.6137 16.1293Z" fill="white"/>
</svg>
