<svg width="80" height="80" viewBox="0 0 80 80" fill="none" xmlns="http://www.w3.org/2000/svg">
<g clip-path="url(#clip0)">
<path d="M71.2756 61.4526L65.3864 41.3367C68.9722 39.1748 71.3763 35.2423 71.3763 30.7581C71.3763 23.952 65.8386 18.4143 59.0326 18.4143C50.4779 18.4143 44.527 26.9373 47.42 34.942L38.3777 41.1511C34.8407 37.7551 29.9646 36.2622 25.1642 37.063L19.4489 22.3212C22.5116 20.0916 24.5087 16.4807 24.5087 12.4103C24.5087 5.65369 19.0112 0.15625 12.254 0.15625C5.49744 0.15625 0 5.65369 0 12.4103C0 19.6661 6.31836 25.4022 13.623 24.5862L19.339 39.328C15.1013 42.0782 12.2919 46.8512 12.2919 52.2687C12.2919 60.7697 19.2078 67.6855 27.7081 67.6855C38.7396 67.6855 46.1774 56.3928 41.922 46.2994L50.965 40.0891C53.1305 41.9641 55.9503 43.1024 59.0326 43.1024C59.1516 43.1024 59.2694 43.0963 59.3878 43.0933L65.2789 63.2135C62.9657 64.9005 61.4587 67.63 61.4587 70.7062C61.4587 75.8185 65.6171 79.9768 70.7294 79.9768C75.8417 79.9768 80 75.8185 80 70.7062C80 65.7782 76.134 61.7371 71.2756 61.4526ZM6.25 12.4103C6.25 9.09973 8.94348 6.40625 12.254 6.40625C15.5652 6.40625 18.2587 9.09973 18.2587 12.4103C18.2587 15.7208 15.5652 18.4149 12.254 18.4149C8.94348 18.4149 6.25 15.7208 6.25 12.4103ZM27.7081 61.4355C22.6538 61.4355 18.5419 57.3236 18.5419 52.2687C18.5419 47.2144 22.6538 43.1024 27.7081 43.1024C32.7631 43.1024 36.875 47.2144 36.875 52.2687C36.875 57.3236 32.7631 61.4355 27.7081 61.4355ZM52.9388 30.7587C52.9388 27.3981 55.6726 24.6649 59.0326 24.6649C62.3926 24.6649 65.1263 27.3981 65.1263 30.7587C65.1263 34.1187 62.3926 36.8524 59.0326 36.8524C55.6726 36.8524 52.9388 34.1187 52.9388 30.7587ZM70.7294 73.7274C69.0637 73.7274 67.7081 72.3718 67.7081 70.7062C67.7081 69.0405 69.0637 67.6855 70.7294 67.6855C72.395 67.6855 73.75 69.0405 73.75 70.7062C73.75 72.3718 72.395 73.7274 70.7294 73.7274Z" fill="#FFC241"/>
</g>
<defs>
<clipPath id="clip0">
<rect width="80" height="80" fill="white"/>
</clipPath>
</defs>
</svg>
