<svg width="80" height="80" viewBox="0 0 80 80" fill="none" xmlns="http://www.w3.org/2000/svg">
<path d="M33.5938 0H3.125C1.39906 0 0 1.39906 0 3.125C0 4.85094 1.39906 6.25 3.125 6.25H4.6875V66.3281C4.6875 73.8669 10.8206 80 18.3594 80C25.8981 80 32.0312 73.8669 32.0312 66.3281V29.6875C32.0312 27.9616 30.6322 26.5625 28.9062 26.5625H10.9375V6.25H25.7812V14.0625C25.7812 15.7884 27.1803 17.1875 28.9062 17.1875C30.6322 17.1875 32.0312 15.7884 32.0312 14.0625V6.25H33.5938C35.3197 6.25 36.7188 4.85094 36.7188 3.125C36.7188 1.39906 35.3197 0 33.5938 0ZM25.7812 32.8125V66.3281C25.7812 70.4205 22.4517 73.75 18.3594 73.75C14.267 73.75 10.9375 70.4205 10.9375 66.3281V32.8125H25.7812ZM76.875 0H46.4062C44.6803 0 43.2812 1.39906 43.2812 3.125C43.2812 4.85094 44.6803 6.25 46.4062 6.25H47.9688V66.3281C47.9688 73.8669 54.1019 80 61.6406 80C69.1794 80 75.3125 73.8669 75.3125 66.3281V39.0625C75.3125 37.3366 73.9134 35.9375 72.1875 35.9375H54.2188V6.25H69.0625V23.4375C69.0625 25.1634 70.4616 26.5625 72.1875 26.5625C73.9134 26.5625 75.3125 25.1634 75.3125 23.4375V6.25H76.875C78.6009 6.25 80 4.85094 80 3.125C80 1.39906 78.6009 0 76.875 0ZM69.0625 42.1875V66.3281C69.0625 70.4205 65.733 73.75 61.6406 73.75C57.5483 73.75 54.2188 70.4205 54.2188 66.3281V42.1875H69.0625Z" fill="#FFC241"/>
</svg>
