<svg width="28" height="26" viewBox="0 0 28 26" fill="none" xmlns="http://www.w3.org/2000/svg">
<path d="M9.0213 17.1018H9.02258L9.02579 17.1016H23.8984C24.2646 17.1016 24.5865 16.8587 24.6871 16.5066L27.9684 5.02225C28.0391 4.77466 27.9895 4.50848 27.8347 4.30298C27.6796 4.09747 27.4371 3.97656 27.1797 3.97656H7.12946L6.54306 1.33768C6.45953 0.962341 6.12671 0.695312 5.74219 0.695312H0.820313C0.367218 0.695312 0 1.06253 0 1.51562C0 1.96872 0.367218 2.33594 0.820313 2.33594H5.08423C5.18805 2.80356 7.89038 14.9643 8.0459 15.6639C7.1741 16.0428 6.5625 16.9121 6.5625 17.9219C6.5625 19.2788 7.6665 20.3828 9.02344 20.3828H23.8984C24.3515 20.3828 24.7188 20.0156 24.7188 19.5625C24.7188 19.1094 24.3515 18.7422 23.8984 18.7422H9.02344C8.5712 18.7422 8.20313 18.3741 8.20313 17.9219C8.20313 17.4703 8.56992 17.1028 9.0213 17.1018ZM26.0921 5.61719L23.2796 15.4609H9.6814L7.4939 5.61719H26.0921Z" fill="black"/>
<path d="M8.2031 22.8437C8.2031 24.2007 9.3071 25.3047 10.664 25.3047C12.021 25.3047 13.125 24.2007 13.125 22.8437C13.125 21.4868 12.021 20.3828 10.664 20.3828C9.3071 20.3828 8.2031 21.4868 8.2031 22.8437ZM10.664 22.0234C11.1163 22.0234 11.4844 22.3915 11.4844 22.8437C11.4844 23.296 11.1163 23.6641 10.664 23.6641C10.2118 23.6641 9.84373 23.296 9.84373 22.8437C9.84373 22.3915 10.2118 22.0234 10.664 22.0234Z" fill="black"/>
<path d="M19.7969 22.8437C19.7969 24.2007 20.9009 25.3047 22.2578 25.3047C23.6147 25.3047 24.7187 24.2007 24.7187 22.8437C24.7187 21.4868 23.6147 20.3828 22.2578 20.3828C20.9009 20.3828 19.7969 21.4868 19.7969 22.8437ZM22.2578 22.0234C22.71 22.0234 23.0781 22.3915 23.0781 22.8437C23.0781 23.296 22.71 23.6641 22.2578 23.6641C21.8056 23.6641 21.4375 23.296 21.4375 22.8437C21.4375 22.3915 21.8056 22.0234 22.2578 22.0234Z" fill="black"/>
</svg>
